<svg id="Layer_1" data-name="Layer 1" xmlns="http://www.w3.org/2000/svg" viewBox="0 0 640 628.36"><defs><style>.cls-1{font-size:144.19px;font-family:ComicSansMS-Bold, Comic Sans MS;font-weight:700;}</style></defs><path d="M192,532.36H384a96,96,0,0,0,96-96h32a128,128,0,0,0,0-256H120a23.94,23.94,0,0,0-24,24v232A96,96,0,0,0,192,532.36Zm320-288a64,64,0,0,1,0,128H480v-128Zm47.7,384H48.33c-47.6,0-61-64-36-64h583.3c25,0,11.8,64-35.9,64Z"/><text class="cls-1" transform="translate(198.93 162.74)">z</text><text class="cls-1" transform="translate(278.39 123.64)">z</text><text class="cls-1" transform="translate(365.62 88.48)">z</text></svg>