<svg id="Layer_1" data-name="Layer 1" xmlns="http://www.w3.org/2000/svg" viewBox="0 0 640 628.36"><path d="M192,532.36H384a96,96,0,0,0,96-96h32a128,128,0,0,0,0-256H120a23.94,23.94,0,0,0-24,24v232A96,96,0,0,0,192,532.36Zm320-288a64,64,0,0,1,0,128H480v-128Zm47.7,384H48.33c-47.6,0-61-64-36-64h583.3c25,0,11.8,64-35.9,64Z"/><path d="M231.06,152.38a16.23,16.23,0,0,0,16,13.5h16.5c9.8,0,17.6-8.5,16.3-18a130.72,130.72,0,0,0-36.6-74.7,94.83,94.83,0,0,1-26.4-53.5,16.11,16.11,0,0,0-16.1-13.8h-16.4a16.31,16.31,0,0,0-16.3,18,145.36,145.36,0,0,0,40.6,84.4A81.22,81.22,0,0,1,231.06,152.38Z"/><path d="M343.06,152.38a16.23,16.23,0,0,0,16,13.5h16.5c9.8,0,17.6-8.5,16.3-18a130.72,130.72,0,0,0-36.6-74.7,94.83,94.83,0,0,1-26.4-53.5,16.11,16.11,0,0,0-16.1-13.8h-16.4c-9.8,0-17.5,8.5-16.3,18a145.36,145.36,0,0,0,40.6,84.4A81.22,81.22,0,0,1,343.06,152.38Z"/></svg>