<svg id="Layer_1" data-name="Layer 1" xmlns="http://www.w3.org/2000/svg" viewBox="0 0 640 628.36"><path d="M595.63,564.36H12.33c-25,0-11.6,64,36,64h511.4C607.43,628.36,620.63,564.36,595.63,564.36ZM512,180.36H120a23.94,23.94,0,0,0-24,23.88V436.36a96,96,0,0,0,96,96H384a96,96,0,0,0,96-96h32a128,128,0,0,0,0-256ZM290.86,454.3a95.36,95.36,0,1,1,95.36-95.36A95.34,95.34,0,0,1,290.86,454.3ZM512,372.36H480v-128h32a64,64,0,0,1,0,128Zm-186.53,2.93-22.3-16.35V303.57a6.16,6.16,0,0,0-6.16-6.15h-12.3a6.15,6.15,0,0,0-6.15,6.15v59.82a15.36,15.36,0,0,0,5.77,12l25.76,19.12a6.16,6.16,0,0,0,8.65-1l7.69-9.61h0A6.15,6.15,0,0,0,325.47,375.29Z"/><path d="M231.06,152.38a16.23,16.23,0,0,0,16,13.5h16.5c9.8,0,17.6-8.5,16.3-18a130.71,130.71,0,0,0-36.6-74.7,94.84,94.84,0,0,1-26.4-53.5,16.12,16.12,0,0,0-16.1-13.8h-16.4A16.31,16.31,0,0,0,168,22.11a17.48,17.48,0,0,0,.09,1.77,145.37,145.37,0,0,0,40.6,84.4A81.21,81.21,0,0,1,231.06,152.38Z"/><path d="M343.06,152.38a16.23,16.23,0,0,0,16,13.5h16.5c9.8,0,17.6-8.5,16.3-18a130.71,130.71,0,0,0-36.6-74.7,94.84,94.84,0,0,1-26.4-53.5,16.12,16.12,0,0,0-16.1-13.8h-16.4c-9.8,0-17.5,8.5-16.3,18a145.37,145.37,0,0,0,40.6,84.4A81.21,81.21,0,0,1,343.06,152.38Z"/></svg>